<svg width="900" height="650" viewBox="0 0 900 650" fill="none" xmlns="http://www.w3.org/2000/svg" role="img" aria-label="Alfaham BBQ">
  <rect width="900" height="650" rx="56" fill="url(#bg)"/>
  <circle cx="712" cy="132" r="164" fill="#FF6A00" opacity=".16" filter="url(#blur)"/>
  <circle cx="167" cy="510" r="156" fill="#FFB347" opacity=".11" filter="url(#blur)"/>

  <ellipse cx="450" cy="548" rx="286" ry="48" fill="#000" opacity=".36"/>
  <g transform="translate(115 90)">
    <path d="M166 220c34-116 202-169 330-111 132 59 193 193 132 287-57 88-197 111-323 71-126-39-180-132-139-247Z" fill="url(#meat)"/>
    <path d="M208 196c102 45 221 96 380 129" stroke="#F3B16A" stroke-width="20" stroke-linecap="round" opacity=".55"/>
    <path d="M214 304c94 34 204 62 352 70" stroke="#37110C" stroke-width="18" stroke-linecap="round" opacity=".35"/>
    <path d="M307 102c-11-52 29-89 60-115-3 62 65 72 39 131" fill="#FF6A00" opacity=".85"/>
    <path d="M448 126c-7-48 43-78 66-114 11 54 71 84 30 141" fill="#FFB347" opacity=".76"/>
    <circle cx="604" cy="205" r="32" fill="#FF6A00" opacity=".25"/>
  </g>

  <defs>
    <filter id="blur" x="-100" y="-100" width="1100" height="850" filterUnits="userSpaceOnUse" color-interpolation-filters="sRGB"><feGaussianBlur stdDeviation="48"/></filter>
    <linearGradient id="bg" x1="0" y1="0" x2="900" y2="650"><stop stop-color="#141414"/><stop offset="1" stop-color="#222"/></linearGradient>
    <linearGradient id="orange" x1="180" y1="120" x2="760" y2="555"><stop stop-color="#FFC46B"/><stop offset=".48" stop-color="#FF6A00"/><stop offset="1" stop-color="#D93600"/></linearGradient>
    <linearGradient id="mint" x1="320" y1="70" x2="604" y2="591"><stop stop-color="#E9FFF3"/><stop offset=".5" stop-color="#78E7AA"/><stop offset="1" stop-color="#0FA968"/></linearGradient>
    <linearGradient id="blue" x1="320" y1="70" x2="604" y2="591"><stop stop-color="#E6F6FF"/><stop offset=".5" stop-color="#59C7FF"/><stop offset="1" stop-color="#1369FF"/></linearGradient>
    <linearGradient id="meat" x1="280" y1="165" x2="650" y2="520"><stop stop-color="#FFB56C"/><stop offset=".45" stop-color="#D95C24"/><stop offset="1" stop-color="#5B1D14"/></linearGradient>
  </defs>
</svg>