<svg xmlns="http://www.w3.org/2000/svg" viewBox="0 0 560 420" role="img" aria-label="Bun shawarma illustration">
<defs><linearGradient id="b" x1="0" x2="1"><stop stop-color="#ffbf4f"/><stop offset="1" stop-color="#d46b00"/></linearGradient><linearGradient id="m" x1="0" x2="1"><stop stop-color="#e84816"/><stop offset="1" stop-color="#84210d"/></linearGradient></defs><rect width="560" height="420" rx="48" fill="#111"/><circle cx="108" cy="95" r="120" fill="#ff6a00" opacity=".16"/><g transform="translate(90 94)"><path d="M42 128c12-92 102-128 198-122 105 6 171 65 176 122z" fill="url(#b)"/><path d="M40 145h380c2 32-18 67-56 77H98c-38-10-60-44-58-77z" fill="#f4ad3e"/><path d="M82 132c90 25 194 25 291-4" fill="none" stroke="url(#m)" stroke-width="34" stroke-linecap="round"/><path d="M95 170c98 22 191 18 268-6" fill="none" stroke="#fff1b7" stroke-width="12" stroke-linecap="round"/><circle cx="132" cy="58" r="8" fill="#fff0be"/><circle cx="214" cy="40" r="7" fill="#fff0be"/><circle cx="290" cy="64" r="8" fill="#fff0be"/></g></svg>
