<svg xmlns="http://www.w3.org/2000/svg" viewBox="0 0 560 420" role="img" aria-label="Chicken chips illustration"><defs><linearGradient id="c" x1="0" x2="1" y1="0" y2="1"><stop stop-color="#ffcc58"/><stop offset="1" stop-color="#e34813"/></linearGradient></defs><rect width="560" height="420" rx="48" fill="#111"/><circle cx="425" cy="80" r="130" fill="#ff6a00" opacity=".18"/><g transform="translate(76 95)"><path d="M36 118h400l-44 158H80z" fill="#cf2a13"/><path d="M77 72h318l39 68H40z" fill="#ff6a00"/><g fill="url(#c)" stroke="#5a1808" stroke-width="5"><path d="M122 43l45 188-50 9-45-186z"/><path d="M213 33l20 202-54 2-18-202z"/><path d="M289 48l-27 188-51-10 32-186z"/><path d="M356 70l-64 164-47-20 68-158z"/></g><path d="M108 170c92 34 190 34 286 2" fill="none" stroke="#fff" opacity=".18" stroke-width="12" stroke-linecap="round"/></g></svg>
