<svg xmlns="http://www.w3.org/2000/svg" viewBox="0 0 560 420" role="img" aria-label="Chicken leg illustration"><defs><linearGradient id="l" x1="0" x2="1" y1="0" y2="1"><stop stop-color="#ffbd4a"/><stop offset=".65" stop-color="#d54911"/><stop offset="1" stop-color="#641b09"/></linearGradient></defs><rect width="560" height="420" rx="48" fill="#111"/><circle cx="420" cy="110" r="130" fill="#ff6a00" opacity=".18"/><g transform="translate(99 82) rotate(-12 180 130)"><path d="M217 194l111 63c18 10 25 32 16 49-10 17-32 24-49 14l-116-62z" fill="#ead8ba"/><circle cx="330" cy="292" r="31" fill="#f0dfc3"/><circle cx="366" cy="276" r="24" fill="#f0dfc3"/><path d="M54 89c24-62 105-96 179-65 77 32 120 105 98 166-24 67-111 96-194 61C60 219 30 151 54 89z" fill="url(#l)"/><path d="M84 86c68 42 154 57 232 38" fill="none" stroke="#ffe083" opacity=".3" stroke-width="14" stroke-linecap="round"/></g></svg>
