<svg xmlns="http://www.w3.org/2000/svg" viewBox="0 0 560 420" role="img" aria-label="Green pepper bbq illustration"><rect width="560" height="420" rx="48" fill="#111"/><circle cx="110" cy="90" r="120" fill="#ff6a00" opacity=".14"/><g transform="translate(89 74)"><ellipse cx="188" cy="224" rx="176" ry="48" fill="#000" opacity=".38"/><path d="M76 84c76-74 224-69 265 14 36 73-3 161-92 180-94 21-192-33-207-111-7-35 5-62 34-83z" fill="#3d1a0a"/><path d="M91 96c65-50 190-44 229 20 28 47 7 120-59 137-78 21-166-23-183-84-8-28-3-52 13-73z" fill="#166b36"/><path d="M98 99c78 38 156 43 225 12" fill="none" stroke="#ddff91" stroke-width="13" opacity=".45" stroke-linecap="round"/><circle cx="278" cy="88" r="18" fill="#ff6a00"/><circle cx="326" cy="138" r="13" fill="#ffbd45"/><circle cx="167" cy="245" r="10" fill="#ff6a00"/></g></svg>
