<svg width="900" height="650" viewBox="0 0 900 650" fill="none" xmlns="http://www.w3.org/2000/svg" role="img" aria-label="Big Bites hero food spread">
  <rect width="900" height="650" rx="56" fill="url(#bg)"/>
  <circle cx="712" cy="132" r="164" fill="#FF6A00" opacity=".16" filter="url(#blur)"/>
  <circle cx="167" cy="510" r="156" fill="#FFB347" opacity=".11" filter="url(#blur)"/>

  <ellipse cx="450" cy="578" rx="320" ry="46" fill="#000" opacity=".32"/>
  <g transform="translate(62 40)">
    <circle cx="185" cy="155" r="80" fill="#FF6A00" opacity=".18"/>
    <g transform="translate(18 135) rotate(-9 260 220)">
      <path d="M140 56c94-45 239-50 354 4 18 9 24 33 10 48L294 350c-22 25-62 25-84-2L86 112c-10-19 3-42 54-56Z" fill="#F7D28A"/>
      <path d="M103 118c119 54 267 56 408-4L296 351c-23 26-63 25-86-3L103 118Z" fill="url(#orange)"/>
      <circle cx="210" cy="150" r="22" fill="#76D66B"/><circle cx="288" cy="139" r="17" fill="#E84022"/><circle cx="362" cy="151" r="19" fill="#FFE27A"/>
      <path d="M185 211c70 38 145 37 235-4" stroke="#6B2112" stroke-width="24" stroke-linecap="round" opacity=".55"/>
    </g>
    <g transform="translate(476 63) rotate(8 140 260)">
      <path d="M78 92h256l-34 362c-4 42-39 74-81 74H193c-42 0-78-32-82-74L78 92Z" fill="#E7FDF2" opacity=".2" stroke="#fff" stroke-width="12"/>
      <path d="M113 202h187l-23 241c-3 25-24 44-49 44h-43c-25 0-46-19-49-44l-23-241Z" fill="url(#mint)"/>
      <path d="M130 170c55-21 104-22 153 0" stroke="#fff" stroke-width="18" stroke-linecap="round" opacity=".65"/>
      <path d="M211 124c22-63 72-70 115-63-28 45-66 74-115 63Z" fill="#62E593"/>
    </g>
    <g transform="translate(268 352) rotate(-1 170 100)">
      <path d="M40 92c34-83 157-119 253-78 99 42 146 139 100 206-43 63-147 82-242 53C56 244 10 174 40 92Z" fill="url(#meat)"/>
      <path d="M76 74c78 33 167 70 286 92" stroke="#FFB56C" stroke-width="20" stroke-linecap="round" opacity=".55"/>
      <path d="M118 14c-6-33 25-58 46-78-1 40 47 50 29 89" fill="#FF6A00" opacity=".85"/>
    </g>
  </g>

  <defs>
    <filter id="blur" x="-100" y="-100" width="1100" height="850" filterUnits="userSpaceOnUse" color-interpolation-filters="sRGB"><feGaussianBlur stdDeviation="48"/></filter>
    <linearGradient id="bg" x1="0" y1="0" x2="900" y2="650"><stop stop-color="#141414"/><stop offset="1" stop-color="#222"/></linearGradient>
    <linearGradient id="orange" x1="180" y1="120" x2="760" y2="555"><stop stop-color="#FFC46B"/><stop offset=".48" stop-color="#FF6A00"/><stop offset="1" stop-color="#D93600"/></linearGradient>
    <linearGradient id="mint" x1="320" y1="70" x2="604" y2="591"><stop stop-color="#E9FFF3"/><stop offset=".5" stop-color="#78E7AA"/><stop offset="1" stop-color="#0FA968"/></linearGradient>
    <linearGradient id="blue" x1="320" y1="70" x2="604" y2="591"><stop stop-color="#E6F6FF"/><stop offset=".5" stop-color="#59C7FF"/><stop offset="1" stop-color="#1369FF"/></linearGradient>
    <linearGradient id="meat" x1="280" y1="165" x2="650" y2="520"><stop stop-color="#FFB56C"/><stop offset=".45" stop-color="#D95C24"/><stop offset="1" stop-color="#5B1D14"/></linearGradient>
  </defs>
</svg>