<svg xmlns="http://www.w3.org/2000/svg" viewBox="0 0 560 420"><defs><linearGradient id="w" x1="0" x2="1" y1="0" y2="1"><stop stop-color="#ffb341"/><stop offset="1" stop-color="#bd2e0f"/></linearGradient></defs><rect width="560" height="420" rx="48" fill="#111"/><circle cx="420" cy="90" r="130" fill="#ff6a00" opacity=".16"/><g transform="translate(74 98)"><path d="M122 32c68-20 146 35 145 97-1 49-51 93-113 95-76 3-137-51-132-106 4-41 39-72 100-86z" fill="url(#w)"/><path d="M280 67c62-31 137 8 146 67 8 49-35 101-97 113-74 14-145-30-147-87-2-40 29-75 98-93z" fill="url(#w)"/><path d="M77 76c70 41 126 49 174 31" stroke="#fff0a2" stroke-width="12" stroke-linecap="round" opacity=".28"/><ellipse cx="225" cy="246" rx="188" ry="42" fill="#000" opacity=".38"/></g></svg>
