<svg width="64" height="64" viewBox="0 0 64 64" fill="none" xmlns="http://www.w3.org/2000/svg">
  <rect width="64" height="64" rx="18" fill="#0F0F0F"/>
  <circle cx="32" cy="32" r="24" fill="url(#g)" opacity=".95"/>
  <path d="M21 40V20h15.5c5.2 0 8.5 2.4 8.5 6.4 0 2.2-1.1 4-3.1 5 2.7.9 4.1 2.9 4.1 5.8 0 4.6-3.7 7.8-9.8 7.8H21Zm8.1-12.3h5.7c1.5 0 2.4-.7 2.4-2s-.9-2-2.4-2h-5.7v4Zm0 10.5h6.5c1.7 0 2.7-.8 2.7-2.3 0-1.4-1-2.2-2.7-2.2h-6.5v4.5Z" fill="white"/>
  <defs><linearGradient id="g" x1="9" y1="7" x2="56" y2="58"><stop stop-color="#FFB347"/><stop offset=".52" stop-color="#FF6A00"/><stop offset="1" stop-color="#E73800"/></linearGradient></defs>
</svg>
